# xmcd
#
# Track frame offsets: 
#        150
#        15291
#        32183
#        57202
#        76161
#        100655
#        130860
#        151442
#        176049
#        195392
#        224242
#        251315
#        268054
#        282211
#        298979
#
# Disc length: 4264 seconds
#
# Revision: 2
# Processed by: cddbd v1.5.2PL0 Copyright (c) Steve Scherf et al.
# Submitted via: ExactAudioCopy v0.99pb5
#
DISCID=d510a60f
DTITLE=Assorted - Tranquil Moods - Spiritual Moods [CD1]
DYEAR=2008
DGENRE=New Age
TTITLE0=Chariots of Fire (The Main Theme)
TTITLE1=Sail Away
TTITLE2=Medicine Woman
TTITLE3=Flying Squirrel Creek
TTITLE4=Anasazi Stardance
TTITLE5=Moonlight On Havasu Creek
TTITLE6=Bard of Armagh
TTITLE7=Tamarack Pines
TTITLE8=Memory of Trees
TTITLE9=Heaven On Earth
TTITLE10=Dance of the World
TTITLE11=Through the Arbor
TTITLE12=How the West Was Lost
TTITLE13=Earth Story
TTITLE14=Brave Heart
EXTD=
EXTT0=
EXTT1=
EXTT2=
EXTT3=
EXTT4=
EXTT5=
EXTT6=
EXTT7=
EXTT8=
EXTT9=
EXTT10=
EXTT11=
EXTT12=
EXTT13=
EXTT14=
PLAYORDER=
